<?xml version="1.0" encoding="UTF-8" standalone="no"?>
<!-- Created with Inkscape (http://www.inkscape.org/) -->

<svg
   xmlns:dc="http://purl.org/dc/elements/1.1/"
   xmlns:cc="http://creativecommons.org/ns#"
   xmlns:rdf="http://www.w3.org/1999/02/22-rdf-syntax-ns#"
   xmlns:svg="http://www.w3.org/2000/svg"
   xmlns="http://www.w3.org/2000/svg"
   xmlns:sodipodi="http://sodipodi.sourceforge.net/DTD/sodipodi-0.dtd"
   xmlns:inkscape="http://www.inkscape.org/namespaces/inkscape"
   id="svg4136"
   version="1.1"
   inkscape:version="0.91 r13725"
   xml:space="preserve"
   width="554.91486"
   height="468.72638"
   viewBox="0 0 554.91486 468.72638"
   sodipodi:docname="simple_loopy_multigraph.svg"><metadata
     id="metadata4142"><rdf:RDF><cc:Work
         rdf:about=""><dc:format>image/svg+xml</dc:format><dc:type
           rdf:resource="http://purl.org/dc/dcmitype/StillImage" /><dc:title></dc:title></cc:Work></rdf:RDF></metadata><defs
     id="defs4140"><clipPath
       clipPathUnits="userSpaceOnUse"
       id="clipPath4152"><path
         d="m 0,374.981 373.441,0 0,-138.711 -373.441,0 0,138.711 z"
         id="path4154"
         inkscape:connector-curvature="0" /></clipPath><clipPath
       clipPathUnits="userSpaceOnUse"
       id="clipPath4162"><path
         d="m 0,236 374,0 0,139 -374,0 0,-139 z"
         id="path4164"
         inkscape:connector-curvature="0" /></clipPath><clipPath
       clipPathUnits="userSpaceOnUse"
       id="clipPath4172"><path
         d="m 0,375 373.441,0 0,-138.711 L 0,236.289 0,375 Z"
         id="path4174"
         inkscape:connector-curvature="0" /></clipPath><clipPath
       clipPathUnits="userSpaceOnUse"
       id="clipPath4182"><path
         d="m 9,253 217,0 0,103 -217,0 0,-103 z"
         id="path4184"
         inkscape:connector-curvature="0" /></clipPath><clipPath
       clipPathUnits="userSpaceOnUse"
       id="clipPath4376"><path
         d="m 71,248 293,0 0,127 -293,0 0,-127 z"
         id="path4378"
         inkscape:connector-curvature="0" /></clipPath><clipPath
       clipPathUnits="userSpaceOnUse"
       id="clipPath4426"><path
         d="m 0,238 373,0 0,122 -373,0 0,-122 z"
         id="path4428"
         inkscape:connector-curvature="0" /></clipPath><clipPath
       clipPathUnits="userSpaceOnUse"
       id="clipPath4458"><path
         d="m 182,242 43,0 0,39 -43,0 0,-39 z"
         id="path4460"
         inkscape:connector-curvature="0" /></clipPath><clipPath
       clipPathUnits="userSpaceOnUse"
       id="clipPath4506"><path
         d="m 0,172.622 443.934,0 0,-172.641 -443.934,0 0,172.641 z"
         id="path4508"
         inkscape:connector-curvature="0" /></clipPath><clipPath
       clipPathUnits="userSpaceOnUse"
       id="clipPath4516"><path
         d="M 0,0 444,0 444,173 0,173 0,0 Z"
         id="path4518"
         inkscape:connector-curvature="0" /></clipPath><clipPath
       clipPathUnits="userSpaceOnUse"
       id="clipPath4538"><path
         d="m 0,172.641 443.934,0 L 443.934,0 0,0 0,172.641 Z"
         id="path4540"
         inkscape:connector-curvature="0" /></clipPath><clipPath
       clipPathUnits="userSpaceOnUse"
       id="clipPath4548"><path
         d="m 271,11 158,0 0,158 -158,0 0,-158 z"
         id="path4550"
         inkscape:connector-curvature="0" /></clipPath><clipPath
       clipPathUnits="userSpaceOnUse"
       id="clipPath5288"><path
         d="m 261,1 183,0 0,172 -183,0 0,-172 z"
         id="path5290"
         inkscape:connector-curvature="0" /></clipPath><clipPath
       clipPathUnits="userSpaceOnUse"
       id="clipPath5332"><path
         d="m 207,0 48,0 0,173 -48,0 0,-173 z"
         id="path5334"
         inkscape:connector-curvature="0" /></clipPath><clipPath
       clipPathUnits="userSpaceOnUse"
       id="clipPath5492"><path
         d="m 2,164 4,0 0,5 -4,0 0,-5 z"
         id="path5494"
         inkscape:connector-curvature="0" /></clipPath><clipPath
       clipPathUnits="userSpaceOnUse"
       id="clipPath5540"><path
         d="m 441,121 3,0 0,1 -3,0 0,-1 z"
         id="path5542"
         inkscape:connector-curvature="0" /></clipPath><clipPath
       clipPathUnits="userSpaceOnUse"
       id="clipPath5556"><path
         d="M 0,8 185,8 185,172 0,172 0,8 Z"
         id="path5558"
         inkscape:connector-curvature="0" /></clipPath></defs><sodipodi:namedview
     pagecolor="#ffffff"
     bordercolor="#666666"
     borderopacity="1"
     objecttolerance="10"
     gridtolerance="10"
     guidetolerance="10"
     inkscape:pageopacity="0"
     inkscape:pageshadow="2"
     inkscape:window-width="1680"
     inkscape:window-height="1029"
     id="namedview4138"
     showgrid="false"
     inkscape:zoom="0.9557815"
     inkscape:cx="207.55687"
     inkscape:cy="271.87896"
     inkscape:window-x="0"
     inkscape:window-y="21"
     inkscape:window-maximized="1"
     inkscape:current-layer="g4144" /><g
     id="g4144"
     inkscape:groupmode="layer"
     inkscape:label="simple_loopy_multigraph"
     transform="matrix(1.25,0,0,-1.25,0,468.72639)"><g
       id="g19731"
       transform="translate(554.10155,-102.9524)"><path
         inkscape:connector-curvature="0"
         id="path4254"
         style="fill:none;stroke:#929393;stroke-width:2.38557029;stroke-linecap:butt;stroke-linejoin:miter;stroke-miterlimit:4;stroke-dasharray:none;stroke-opacity:1"
         d="m -327.72167,375.63078 c 3.40217,3.40661 8.52538,3.80582 11.43667,0.89453 2.90981,-2.91129 2.51208,-8.02859 -0.89601,-11.43519 -3.40217,-3.40217 -8.5239,-3.8073 -11.43519,-0.89601 -2.91129,2.91129 -2.51208,8.0345 0.89453,11.43667 z" /><path
         d="m -324.7749,362.62388 c 0,-4.32628 -3.50715,-7.83194 -7.82602,-7.83194 -4.32628,0 -7.83194,3.50566 -7.83194,7.83194 0,4.32035 3.50566,7.82602 7.83194,7.82602 4.31887,0 7.82602,-3.50567 7.82602,-7.82602"
         style="fill:#3f7dbf;fill-opacity:1;fill-rule:nonzero;stroke:none"
         id="path4256"
         inkscape:connector-curvature="0" /><path
         inkscape:connector-curvature="0"
         id="path4260"
         style="fill:none;stroke:#ffffff;stroke-width:2.38557029;stroke-linecap:butt;stroke-linejoin:miter;stroke-miterlimit:4;stroke-dasharray:none;stroke-opacity:1"
         d="m -324.7749,362.62388 c 0,-4.32628 -3.50715,-7.83194 -7.82602,-7.83194 -4.32628,0 -7.83194,3.50566 -7.83194,7.83194 0,4.32035 3.50566,7.82602 7.83194,7.82602 4.31887,0 7.82602,-3.50567 7.82602,-7.82602 z" /><path
         inkscape:connector-curvature="0"
         id="path4264"
         style="fill:none;stroke:#929393;stroke-width:2.65852499;stroke-linecap:butt;stroke-linejoin:miter;stroke-miterlimit:4;stroke-dasharray:none;stroke-opacity:1"
         d="m -422.30598,331.75463 49.85064,0" /><path
         inkscape:connector-curvature="0"
         id="path4268"
         style="fill:none;stroke:#929393;stroke-width:2.65852499;stroke-linecap:butt;stroke-linejoin:miter;stroke-miterlimit:4;stroke-dasharray:none;stroke-opacity:1"
         d="m -422.30598,323.45168 49.85064,0" /><path
         d="m -413.99644,328.01426 c 0,-4.81468 -3.90679,-8.72147 -8.72148,-8.72147 -4.82127,0 -8.72147,3.90679 -8.72147,8.72147 0,4.82128 3.9002,8.72807 8.72147,8.72807 4.81469,0 8.72148,-3.90679 8.72148,-8.72807"
         style="fill:#3f7dbf;fill-opacity:1;fill-rule:nonzero;stroke:none"
         id="path4270"
         inkscape:connector-curvature="0" /><path
         inkscape:connector-curvature="0"
         id="path4274"
         style="fill:none;stroke:#ffffff;stroke-width:2.65852499;stroke-linecap:butt;stroke-linejoin:miter;stroke-miterlimit:4;stroke-dasharray:none;stroke-opacity:1"
         d="m -413.99644,328.01426 c 0,-4.81468 -3.90679,-8.72147 -8.72148,-8.72147 -4.82127,0 -8.72147,3.90679 -8.72147,8.72147 0,4.82128 3.9002,8.72807 8.72147,8.72807 4.81469,0 8.72148,-3.90679 8.72148,-8.72807 z" /><path
         d="m -364.1458,328.01426 c 0,-4.81468 -3.90844,-8.72147 -8.72807,-8.72147 -4.81469,0 -8.72147,3.90679 -8.72147,8.72147 0,4.82128 3.90678,8.72807 8.72147,8.72807 4.81963,0 8.72807,-3.90679 8.72807,-8.72807"
         style="fill:#3f7dbf;fill-opacity:1;fill-rule:nonzero;stroke:none"
         id="path4276"
         inkscape:connector-curvature="0" /><path
         inkscape:connector-curvature="0"
         id="path4280"
         style="fill:none;stroke:#ffffff;stroke-width:2.65852499;stroke-linecap:butt;stroke-linejoin:miter;stroke-miterlimit:4;stroke-dasharray:none;stroke-opacity:1"
         d="m -364.1458,328.01426 c 0,-4.81468 -3.90844,-8.72147 -8.72807,-8.72147 -4.81469,0 -8.72147,3.90679 -8.72147,8.72147 0,4.82128 3.90678,8.72807 8.72147,8.72807 4.81963,0 8.72807,-3.90679 8.72807,-8.72807 z" /><path
         inkscape:connector-curvature="0"
         id="path4284"
         style="fill:none;stroke:#929393;stroke-width:2.65852499;stroke-linecap:butt;stroke-linejoin:miter;stroke-miterlimit:4;stroke-dasharray:none;stroke-opacity:1"
         d="m -422.30598,265.2915 49.85064,0" /><path
         inkscape:connector-curvature="0"
         id="path4288"
         style="fill:none;stroke:#929393;stroke-width:2.65852499;stroke-linecap:butt;stroke-linejoin:miter;stroke-miterlimit:4;stroke-dasharray:none;stroke-opacity:1"
         d="m -422.30598,256.98856 49.85064,0" /><path
         d="m -413.99644,261.55114 c 0,-4.81304 -3.90679,-8.72147 -8.72148,-8.72147 -4.82127,0 -8.72147,3.90843 -8.72147,8.72147 0,4.82128 3.9002,8.72806 8.72147,8.72806 4.81469,0 8.72148,-3.90678 8.72148,-8.72806"
         style="fill:#3f7dbf;fill-opacity:1;fill-rule:nonzero;stroke:none"
         id="path4290"
         inkscape:connector-curvature="0" /><path
         inkscape:connector-curvature="0"
         id="path4294"
         style="fill:none;stroke:#ffffff;stroke-width:2.65852499;stroke-linecap:butt;stroke-linejoin:miter;stroke-miterlimit:4;stroke-dasharray:none;stroke-opacity:1"
         d="m -413.99644,261.55114 c 0,-4.81304 -3.90679,-8.72147 -8.72148,-8.72147 -4.82127,0 -8.72147,3.90843 -8.72147,8.72147 0,4.82128 3.9002,8.72806 8.72147,8.72806 4.81469,0 8.72148,-3.90678 8.72148,-8.72806 z" /><path
         d="m -364.1458,261.55114 c 0,-4.81304 -3.90844,-8.72147 -8.72807,-8.72147 -4.81469,0 -8.72147,3.90843 -8.72147,8.72147 0,4.82128 3.90678,8.72806 8.72147,8.72806 4.81963,0 8.72807,-3.90678 8.72807,-8.72806"
         style="fill:#3f7dbf;fill-opacity:1;fill-rule:nonzero;stroke:none"
         id="path4296"
         inkscape:connector-curvature="0" /><path
         inkscape:connector-curvature="0"
         id="path4300"
         style="fill:none;stroke:#ffffff;stroke-width:2.65852499;stroke-linecap:butt;stroke-linejoin:miter;stroke-miterlimit:4;stroke-dasharray:none;stroke-opacity:1"
         d="m -364.1458,261.55114 c 0,-4.81304 -3.90844,-8.72147 -8.72807,-8.72147 -4.81469,0 -8.72147,3.90843 -8.72147,8.72147 0,4.82128 3.90678,8.72806 8.72147,8.72806 4.81963,0 8.72807,-3.90678 8.72807,-8.72806 z" /><path
         inkscape:connector-curvature="0"
         id="path4304"
         style="fill:none;stroke:#929393;stroke-width:2.38557029;stroke-linecap:butt;stroke-linejoin:miter;stroke-miterlimit:4;stroke-dasharray:none;stroke-opacity:1"
         d="m -245.11146,375.63078 c 3.40217,3.40661 8.52538,3.80582 11.43667,0.89453 2.90981,-2.91129 2.51207,-8.02859 -0.89601,-11.43519 -3.40217,-3.40217 -8.52391,-3.8073 -11.43519,-0.89601 -2.91129,2.91129 -2.51208,8.0345 0.89453,11.43667 z" /><path
         d="m -242.16617,362.62388 c 0,-4.32628 -3.50567,-7.83194 -7.82603,-7.83194 -4.32479,0 -7.83046,3.50566 -7.83046,7.83194 0,4.32035 3.50567,7.82602 7.83046,7.82602 4.32036,0 7.82603,-3.50567 7.82603,-7.82602"
         style="fill:#3f7dbf;fill-opacity:1;fill-rule:nonzero;stroke:none"
         id="path4306"
         inkscape:connector-curvature="0" /><path
         inkscape:connector-curvature="0"
         id="path4310"
         style="fill:none;stroke:#ffffff;stroke-width:2.38557029;stroke-linecap:butt;stroke-linejoin:miter;stroke-miterlimit:4;stroke-dasharray:none;stroke-opacity:1"
         d="m -242.16617,362.62388 c 0,-4.32628 -3.50567,-7.83194 -7.82603,-7.83194 -4.32479,0 -7.83046,3.50566 -7.83046,7.83194 0,4.32035 3.50567,7.82602 7.83046,7.82602 4.32036,0 7.82603,-3.50567 7.82603,-7.82602 z" /><path
         inkscape:connector-curvature="0"
         id="path4314"
         style="fill:none;stroke:#ed1d24;stroke-width:1.99389374;stroke-linecap:butt;stroke-linejoin:miter;stroke-miterlimit:4;stroke-dasharray:none;stroke-opacity:1"
         d="m -402.36671,335.91187 8.30953,-8.30954" /><path
         inkscape:connector-curvature="0"
         id="path4318"
         style="fill:none;stroke:#ed1d24;stroke-width:1.99389374;stroke-linecap:butt;stroke-linejoin:miter;stroke-miterlimit:4;stroke-dasharray:none;stroke-opacity:1"
         d="m -402.36671,327.60233 8.30953,8.30954" /><path
         inkscape:connector-curvature="0"
         id="path4322"
         style="fill:none;stroke:#ed1d24;stroke-width:1.78917778;stroke-linecap:butt;stroke-linejoin:miter;stroke-miterlimit:4;stroke-dasharray:none;stroke-opacity:1"
         d="m -321.7956,380.88559 7.45639,-7.45639" /><path
         inkscape:connector-curvature="0"
         id="path4326"
         style="fill:none;stroke:#ed1d24;stroke-width:1.78917778;stroke-linecap:butt;stroke-linejoin:miter;stroke-miterlimit:4;stroke-dasharray:none;stroke-opacity:1"
         d="m -321.7956,373.4292 7.45639,7.45639" /><path
         inkscape:connector-curvature="0"
         id="path4330"
         style="fill:none;stroke:#100f0d;stroke-width:2.13722467;stroke-linecap:butt;stroke-linejoin:miter;stroke-miterlimit:4;stroke-dasharray:none;stroke-opacity:1"
         d="m -355.48035,351.42229 142.48162,0 0,-142.48162 -142.48162,0 0,142.48162 z" /><path
         inkscape:connector-curvature="0"
         id="path4334"
         style="fill:none;stroke:#100f0d;stroke-width:2.13722467;stroke-linecap:butt;stroke-linejoin:miter;stroke-miterlimit:4;stroke-dasharray:none;stroke-opacity:1"
         d="m -284.23953,351.42229 0,-142.48162" /><path
         inkscape:connector-curvature="0"
         id="path4338"
         style="fill:none;stroke:#100f0d;stroke-width:2.13722467;stroke-linecap:butt;stroke-linejoin:miter;stroke-miterlimit:4;stroke-dasharray:none;stroke-opacity:1"
         d="m -355.48035,280.18147 142.48162,0" /><text
         y="-386.884"
         x="-303.81293"
         transform="scale(1,-1)"
         style="font-style:normal;font-variant:normal;font-weight:bold;font-stretch:normal;font-size:7.26047993px;font-family:Helvetica;-inkscape-font-specification:'Helvetica Bold';writing-mode:lr-tb;fill:#231f20;fill-opacity:1;fill-rule:nonzero;stroke:none"
         id="text4382"><tspan
           style="font-style:normal;font-variant:normal;font-weight:bold;font-stretch:normal;font-size:14px;font-family:Helvetica;-inkscape-font-specification:'Helvetica Bold'"
           y="-386.884"
           x="-303.81293"
           sodipodi:role="line"
           id="tspan4384">Loops?</tspan></text>
<text
         y="-441.79593"
         x="258.92093"
         transform="matrix(0,1,1,0,0,0)"
         style="font-style:normal;font-variant:normal;font-weight:bold;font-stretch:normal;font-size:7.26047993px;font-family:Helvetica;-inkscape-font-specification:'Helvetica Bold';writing-mode:lr-tb;fill:#231f20;fill-opacity:1;fill-rule:nonzero;stroke:none"
         id="text4444"><tspan
           style="font-style:normal;font-variant:normal;font-weight:bold;font-stretch:normal;font-size:14px;font-family:Helvetica;-inkscape-font-specification:'Helvetica Bold'"
           y="-441.79593"
           x="258.92093"
           sodipodi:role="line"
           id="tspan4446">Multiedges?</tspan></text>
<text
         transform="scale(1,-1)"
         sodipodi:linespacing="125%"
         id="text19410"
         y="-310.83502"
         x="-339.3844"
         style="font-style:normal;font-variant:normal;font-weight:normal;font-stretch:normal;font-size:20px;line-height:125%;font-family:Helvetica;-inkscape-font-specification:Helvetica;letter-spacing:0px;word-spacing:0px;fill:#000000;fill-opacity:1;stroke:none;stroke-width:1px;stroke-linecap:butt;stroke-linejoin:miter;stroke-opacity:1"
         xml:space="preserve"><tspan
           style="font-size:12px"
           y="-310.83502"
           x="-339.3844"
           id="tspan19412"
           sodipodi:role="line">Simple</tspan></text>
<text
         transform="scale(1,-1)"
         xml:space="preserve"
         style="font-style:normal;font-variant:normal;font-weight:normal;font-stretch:normal;font-size:20px;line-height:125%;font-family:Helvetica;-inkscape-font-specification:Helvetica;letter-spacing:0px;word-spacing:0px;fill:#000000;fill-opacity:1;stroke:none;stroke-width:1px;stroke-linecap:butt;stroke-linejoin:miter;stroke-opacity:1"
         x="-266.32922"
         y="-310.24316"
         id="text19414-9"
         sodipodi:linespacing="125%"><tspan
           sodipodi:role="line"
           id="tspan19416-3"
           x="-266.32922"
           y="-310.24316"
           style="font-size:12px">Loopy</tspan></text>
<text
         transform="scale(1,-1)"
         xml:space="preserve"
         style="font-style:normal;font-variant:normal;font-weight:normal;font-stretch:normal;font-size:20px;line-height:125%;font-family:Helvetica;-inkscape-font-specification:Helvetica;letter-spacing:0px;word-spacing:0px;fill:#000000;fill-opacity:1;stroke:none;stroke-width:1px;stroke-linecap:butt;stroke-linejoin:miter;stroke-opacity:1"
         x="-250.41638"
         y="-249.40405"
         id="text19414-9-6"
         sodipodi:linespacing="125%"><tspan
           sodipodi:role="line"
           id="tspan19416-3-0"
           x="-250.41638"
           y="-249.40405"
           style="font-size:12px;text-align:center;text-anchor:middle">Loopy</tspan><tspan
           id="tspan19454"
           sodipodi:role="line"
           x="-250.41638"
           y="-234.40405"
           style="font-size:12px;text-align:center;text-anchor:middle">Multigraph</tspan></text>
<text
         transform="scale(1,-1)"
         xml:space="preserve"
         style="font-style:normal;font-variant:normal;font-weight:normal;font-stretch:normal;font-size:20px;line-height:125%;font-family:Helvetica;-inkscape-font-specification:Helvetica;letter-spacing:0px;word-spacing:0px;fill:#000000;fill-opacity:1;stroke:none;stroke-width:1px;stroke-linecap:butt;stroke-linejoin:miter;stroke-opacity:1"
         x="-350.18134"
         y="-243.00403"
         id="text19414-9-6-6"
         sodipodi:linespacing="125%"><tspan
           id="tspan19454-6"
           sodipodi:role="line"
           x="-350.18134"
           y="-243.00403"
           style="font-size:12px">Multigraph</tspan></text>
</g></g></svg>